PathFileType	4	(X/Y/Z)	/Volumes/GoogleDrive/My Drive/Research/Stanford/Projects/Digital Athlete Project/Sprinting/Sprint Simulation/sprinter/subjects/JA1/experimental_data/TRC/run0900cms.trc
DataRate	CameraRate	NumFrames	NumMarkers	Units	OrigDataRate	OrigDataStartFrame	OrigNumFrames
250.000000	250.000000	4	53	mm	250.000000	122	323
Frame#	Time	C7			RSH			LSH			MAN			T7			LARM			LELB			LFOREARM			LWR			RARM			RELB			RFOREARM			RWR			RASI			LASI			SACR			P1			P2			P3			LTHLP			LTHLD			LTHAP			LTHAD			LLEPI			LPAT			LTIAP			LTIAD			LTILAT			LLMAL			LHEEL			LMFS			LMFL			LP1MT			LTOE			LP5MT			RTHLP			RTHLD			RTHAP			RTHAD			RLEPI			RPAT			RTIAP			RTIAD			RTILAT			RLMAL			RHEEL			RMFS			RMFL			RP1MT			RTOE			RP5MT			x52			x53			
		X1	Y1	Z1	X2	Y2	Z2	X3	Y3	Z3	X4	Y4	Z4	X5	Y5	Z5	X6	Y6	Z6	X7	Y7	Z7	X8	Y8	Z8	X9	Y9	Z9	X10	Y10	Z10	X11	Y11	Z11	X12	Y12	Z12	X13	Y13	Z13	X14	Y14	Z14	X15	Y15	Z15	X16	Y16	Z16	X17	Y17	Z17	X18	Y18	Z18	X19	Y19	Z19	X20	Y20	Z20	X21	Y21	Z21	X22	Y22	Z22	X23	Y23	Z23	X24	Y24	Z24	X25	Y25	Z25	X26	Y26	Z26	X27	Y27	Z27	X28	Y28	Z28	X29	Y29	Z29	X30	Y30	Z30	X31	Y31	Z31	X32	Y32	Z32	X33	Y33	Z33	X34	Y34	Z34	X35	Y35	Z35	X36	Y36	Z36	X37	Y37	Z37	X38	Y38	Z38	X39	Y39	Z39	X40	Y40	Z40	X41	Y41	Z41	X42	Y42	Z42	X43	Y43	Z43	X44	Y44	Z44	X45	Y45	Z45	X46	Y46	Z46	X47	Y47	Z47	X48	Y48	Z48	X49	Y49	Z49	X50	Y50	Z50	X51	Y51	Z51	X52	Y52	Z52	X53	Y53	Z53	
122	0.488000	-1389.563110	1474.132812	200.757050	-1322.516846	1475.880737	334.881287	-1349.178223	1474.227905	24.933849	-1257.604248	1374.944580	162.208847	-1464.026978	1286.327148	228.647049	-1510.465088	1439.937012	-53.839745	-1653.808105	1438.269531	-69.930412	-1742.197876	1318.926880	-103.334343	-1842.441895	1230.805420	-117.360245	-1198.219971	1339.130737	425.586212	-1107.811157	1240.757202	468.363098	-1042.587891	1346.474487	393.575470	-988.764404	1437.477295	327.343658	-1308.086670	968.452881	304.813141	-1307.222900	995.229065	91.128288	-1474.738037	1059.952759	210.477371	-1495.560425	1032.110840	158.396545	-1496.151489	1041.058472	263.770721	-1538.917969	992.037720	211.849411	-1200.807861	829.999634	23.159575	-1092.678345	803.077698	47.852043	-1161.620361	945.636841	113.812416	-1055.658447	903.859314	122.053009	-1007.696960	758.634521	81.270966	-935.918701	813.942078	147.482132	-989.458008	599.591492	153.981567	-1021.186218	462.796204	157.126816	-1050.811768	540.102966	85.333122	-1083.265503	319.433167	111.955704	-1145.880371	288.181824	168.905014	-973.851257	299.221313	150.730118	-1015.500366	277.021698	92.930901	-913.282593	235.482529	170.368423	-896.321533	262.062897	130.005219	-956.850281	234.394577	52.902523	-1557.404541	781.819336	377.346832	-1625.286011	693.777405	352.725067	-1475.655762	684.671082	298.076263	-1550.561890	621.998474	272.055328	-1730.798462	591.193237	312.731049	-1671.600098	527.959900	252.645264	-1902.695923	454.348755	229.048706	-2017.766479	395.324951	216.796417	-1939.707153	492.276337	303.912262	-2139.492188	365.958618	269.521454	-2170.912842	424.146820	214.014175	-2131.234619	255.465179	223.157776	-2177.463379	290.672119	270.943481	-2178.791016	189.038513	175.680588	-2179.370117	168.536041	232.665100	-2220.372314	215.556610	292.370605	-958.664368	1488.369263	290.304504	-1893.390991	1186.017700	-124.488907
123	0.492000	-1350.893188	1476.582397	199.957870	-1283.419434	1478.466797	335.069885	-1310.552734	1474.762573	24.002110	-1219.107910	1375.715210	162.222977	-1425.684448	1289.203979	228.995193	-1473.543945	1441.051514	-49.831932	-1616.834961	1440.381958	-63.329430	-1705.285156	1321.476562	-99.333000	-1804.935913	1233.845215	-115.061020	-1159.828857	1340.460083	426.614319	-1070.479614	1241.990845	468.944214	-1008.831543	1349.203003	393.809814	-958.591919	1441.693115	327.031494	-1270.656494	970.645142	305.907715	-1270.394409	996.123230	91.903030	-1438.001221	1060.906006	209.759430	-1458.644653	1033.076904	157.256958	-1458.862793	1041.782104	263.211334	-1502.066650	993.337463	211.099197	-1165.174438	828.262085	22.902777	-1057.384766	799.714539	47.393806	-1125.913818	940.699036	117.004951	-1020.169861	899.182617	124.040840	-973.869080	752.001221	80.727745	-902.183533	809.452515	145.329742	-944.525391	592.764221	153.198639	-966.273743	453.964935	156.919678	-1000.122681	527.865417	83.623329	-1015.920532	305.531586	112.454895	-1077.813965	270.566864	168.211761	-909.053955	293.700348	155.614105	-945.214050	267.767365	95.019386	-840.946960	236.398758	175.682861	-826.218079	262.948364	134.952148	-882.731934	228.314575	57.969959	-1517.889404	780.917236	379.067627	-1585.205444	692.182434	354.571045	-1435.521118	685.460632	298.205536	-1509.362671	621.317078	273.700165	-1691.223145	590.586792	312.814270	-1634.145264	526.646118	252.116852	-1873.748657	467.241699	228.895065	-1991.578735	415.762421	215.893661	-1907.256470	506.087189	303.547272	-2114.733643	393.231689	269.039246	-2146.157227	451.479370	212.799606	-2110.180908	281.891907	223.303085	-2154.149170	319.765991	271.907623	-2161.481934	217.282700	177.712250	-2145.478760	201.087631	221.210480	-2197.083496	246.451569	295.919403	-930.496155	1493.416870	289.686707	-1855.583496	1189.306641	-123.054787
124	0.496000	-1311.048218	1479.218872	199.271362	-1243.738159	1481.303223	335.064331	-1271.706055	1475.603882	23.093468	-1180.392456	1376.921265	162.359970	-1387.666748	1292.030884	228.881393	-1435.896851	1440.865234	-46.820244	-1578.943848	1440.859253	-58.214977	-1667.723877	1322.048340	-95.770203	-1766.659180	1234.598022	-112.694016	-1121.998901	1341.555054	427.786469	-1035.088257	1242.177856	469.825867	-975.922302	1350.116089	393.882202	-927.980530	1443.336182	326.893982	-1232.955078	973.067261	306.759796	-1233.969238	997.411377	92.606308	-1401.677979	1062.154297	209.100906	-1420.641479	1034.035034	156.220947	-1421.925903	1042.406250	262.633484	-1465.332397	994.305542	210.586563	-1130.708618	827.663391	21.378000	-1024.067871	796.070923	46.546200	-1089.517090	935.017334	118.726166	-984.815918	892.301697	124.742294	-940.181702	744.192627	79.655922	-869.551941	803.236938	143.605103	-900.599854	584.923584	152.115021	-912.784180	444.817505	156.542786	-949.614990	515.132690	81.495605	-949.679688	292.168793	112.106201	-1011.209717	254.429810	166.924942	-843.849915	289.423126	157.536942	-875.925415	259.229523	97.169922	-771.973816	238.507889	182.049591	-755.487732	266.102142	137.121063	-810.285950	222.604584	63.470428	-1477.454346	778.402954	380.181335	-1544.323730	689.667664	355.703064	-1394.237305	685.006165	299.100281	-1467.471558	619.054260	276.546661	-1652.268555	589.936646	313.766296	-1596.107178	523.898987	253.854034	-1841.620850	479.285065	229.108246	-1963.147339	436.591187	215.440567	-1873.307007	521.328430	303.301453	-2087.989502	422.304047	268.380280	-2117.201904	480.688141	212.170776	-2087.105469	310.637695	223.590179	-2128.722656	350.606323	272.556580	-2142.113281	246.397736	179.081345	-2127.417480	229.092499	222.718430	-2175.582031	277.581604	296.979706	-901.169800	1495.468140	289.431793	-1816.942993	1190.151367	-121.295540
125	0.500000	-1271.469238	1481.873413	198.634872	-1203.271606	1484.246338	334.405212	-1232.561523	1476.415161	22.174906	-1141.658447	1378.366333	162.474686	-1349.850342	1294.638428	228.275284	-1397.755737	1440.088257	-45.058910	-1541.147827	1439.890259	-54.166996	-1629.412476	1320.779541	-92.480347	-1727.413452	1233.159180	-110.264412	-1085.657471	1341.832764	428.347504	-1001.113892	1241.314087	471.034454	-943.401855	1349.216919	394.327484	-896.700928	1442.576172	326.941132	-1195.145508	975.604675	307.392151	-1197.664185	999.105713	93.541168	-1366.010376	1063.530029	209.084732	-1385.430054	1035.378174	156.151016	-1384.511353	1042.988281	262.350922	-1427.496948	994.374695	210.163010	-1097.558350	827.162354	19.611837	-991.730164	792.234131	44.854797	-1053.494385	928.484009	120.247444	-949.616882	884.456848	124.180550	-907.769775	735.466675	79.137314	-837.118652	795.705444	141.824768	-857.907654	576.289062	150.762817	-860.937500	435.604004	155.864548	-902.826294	502.043213	81.548737	-884.911926	280.221893	111.585457	-946.346741	239.937851	165.230652	-781.757324	285.593781	159.683090	-808.669434	251.729370	98.821289	-706.376160	241.211716	188.441422	-695.654358	267.045532	147.008926	-739.591553	217.888824	69.390091	-1436.738525	775.924072	381.191101	-1502.542725	686.632446	356.877228	-1352.639526	683.577515	300.471466	-1425.439819	616.003113	279.905792	-1612.570312	589.481873	315.368591	-1557.633545	520.217896	257.986359	-1807.789185	490.396729	231.011108	-1931.989014	457.070984	216.427383	-1837.658569	536.508911	303.516296	-2057.695801	451.308838	268.201202	-2083.146240	511.229309	212.130341	-2061.807861	339.564087	225.178070	-2101.657227	381.692322	273.144714	-2120.691406	277.613495	179.619781	-2108.213867	259.352448	223.572815	-2153.645996	310.008789	296.520538	-870.584106	1494.786011	289.256287	-1777.222534	1188.626099	-119.303162
